<svg xmlns="http://www.w3.org/2000/svg" viewBox="0 0 229.8 229.8"><defs><style>.cls-1{fill:#303030;}</style></defs><title>Fichier 1</title><g id="Calque_2" data-name="Calque 2"><g id="Calque_1-2" data-name="Calque 1"><path class="cls-1" d="M114.9,0A114.9,114.9,0,1,0,229.8,114.9,114.9,114.9,0,0,0,114.9,0Zm0,27.62a87.29,87.29,0,0,1,86.86,78.6C121.32,62.59,56.21,88.73,28.18,104.94A87.3,87.3,0,0,1,114.9,27.62ZM129.2,201l-.39.07.39-2.88Zm0-83.84-.17-.07a14.51,14.51,0,0,0,.17-2.2ZM27.83,121c23.28,11,66.91,37.11,72.62,80A87.31,87.31,0,0,1,27.83,121Zm101.52,80c5.71-42.87,49.35-69,72.62-80A87.31,87.31,0,0,1,129.35,201Z"/></g></g></svg>